<svg width="46" height="46" viewBox="0 0 46 46" fill="none" xmlns="http://www.w3.org/2000/svg">
<g clip-path="url(#clip0_19_712)">
<path d="M45.312 28.5773C42.2379 40.8722 29.7733 48.3861 17.4223 45.312C5.12736 42.2379 -2.38645 29.7733 0.687647 17.4223C3.76174 5.12736 16.2263 -2.38645 28.5773 0.687647C40.8722 3.76174 48.3861 16.2263 45.312 28.5773Z" fill="#F7931A"/>
<path d="M33.1315 19.6988C33.5872 16.6254 31.2534 14.9745 28.0657 13.8935L29.09 9.73909L26.5858 9.11378L25.5616 13.1553C24.8788 12.9842 24.196 12.8139 23.5132 12.6996L24.5374 8.65809L22.0333 8.03278L21.0091 12.1872C20.4398 12.0736 19.9273 11.9593 19.4156 11.789L15.944 10.9351L15.2612 13.6103L17.0825 14.066C18.1067 14.2938 18.2778 14.9766 18.2778 15.5466L17.0804 20.2688C17.1379 20.2688 17.2514 20.3263 17.365 20.3263C17.3075 20.3263 17.1939 20.2688 17.0804 20.2688L15.4294 26.8712C15.3158 27.1558 14.9737 27.6618 14.2909 27.4965C14.2909 27.554 12.4696 27.0408 12.4696 27.0408L11.2175 29.9446L14.5187 30.7352C15.1441 30.9063 15.714 31.0766 16.3401 31.1909L15.3158 35.4028L17.82 36.0281L18.8442 31.8737L20.8437 32.3941L19.8195 36.5485L22.3237 37.1738L23.3479 32.9619C27.6733 33.7525 30.861 33.4744 32.2273 29.5478C33.309 26.4177 32.1698 24.5885 29.8935 23.4004C31.6013 23.059 32.7973 21.9772 33.138 19.701L33.1315 19.6988ZM27.3829 27.8372C26.5923 30.9674 21.3497 29.2603 19.642 28.8614L21.0076 23.2839C22.7154 23.6821 28.1793 24.536 27.3829 27.8372ZM28.1736 19.6981C27.4907 22.5443 23.051 21.1212 21.6279 20.7223L22.88 15.6566C24.3031 16.0547 28.9132 16.6808 28.1736 19.6981Z" fill="white"/>
</g>
<defs>
<clipPath id="clip0_19_712">
<rect width="46" height="46" fill="white"/>
</clipPath>
</defs>
</svg>
