<svg width="24" height="24" viewBox="0 0 24 24" fill="none" xmlns="http://www.w3.org/2000/svg">
<path d="M11.9999 13.43C12.4096 13.43 12.8153 13.3493 13.1939 13.1925C13.5724 13.0357 13.9163 12.8059 14.2061 12.5162C14.4958 12.2265 14.7256 11.8825 14.8824 11.504C15.0392 11.1254 15.1199 10.7197 15.1199 10.31C15.1199 9.90028 15.0392 9.49457 14.8824 9.11603C14.7256 8.73749 14.4958 8.39355 14.2061 8.10383C13.9163 7.81411 13.5724 7.58429 13.1939 7.4275C12.8153 7.2707 12.4096 7.19 11.9999 7.19C11.1724 7.19 10.3788 7.51872 9.79371 8.10383C9.2086 8.68894 8.87988 9.48253 8.87988 10.31C8.87988 11.1375 9.2086 11.9311 9.79371 12.5162C10.3788 13.1013 11.1724 13.43 11.9999 13.43V13.43Z" stroke="black" stroke-width="1.5"/>
<path d="M3.61971 8.49C5.58971 -0.169998 18.4197 -0.159997 20.3797 8.5C21.5297 13.58 18.3697 17.88 15.5997 20.54C14.6318 21.4735 13.3395 21.9952 11.9947 21.9952C10.65 21.9952 9.35763 21.4735 8.38971 20.54C5.62971 17.88 2.46971 13.57 3.61971 8.49V8.49Z" stroke="black" stroke-width="1.5"/>
</svg>
