<svg width="24" height="24" viewBox="0 0 24 24" fill="none" xmlns="http://www.w3.org/2000/svg">
<path d="M11 4.5H7M17 6V16C17 20 16 21 12 21H6C2 21 1 20 1 16V6C1 2 2 1 6 1H12C16 1 17 2 17 6Z" stroke="black" stroke-width="1.5" stroke-linecap="round" stroke-linejoin="round"/>
<path d="M8.99995 18.1C9.41104 18.1 9.80529 17.9367 10.096 17.646C10.3866 17.3553 10.55 16.9611 10.55 16.55C10.55 16.1389 10.3866 15.7447 10.096 15.454C9.80529 15.1633 9.41104 15 8.99995 15C8.58887 15 8.19462 15.1633 7.90394 15.454C7.61325 15.7447 7.44995 16.1389 7.44995 16.55C7.44995 16.9611 7.61325 17.3553 7.90394 17.646C8.19462 17.9367 8.58887 18.1 8.99995 18.1V18.1Z" stroke="black" stroke-width="1.5" stroke-linecap="round" stroke-linejoin="round"/>
</svg>
